<?xml version="1.0" encoding="UTF-8" standalone="no"?>
<!DOCTYPE svg PUBLIC "-//W3C//DTD SVG 1.1//EN"
 "http://www.w3.org/Graphics/SVG/1.1/DTD/svg11.dtd">
<!-- Generated by graphviz version 2.36.0 (20140111.2315)
 -->
<!-- Title: %3 Pages: 1 -->
<svg width="848pt" height="278pt"
 viewBox="0.00 0.00 848.00 278.00" xmlns="http://www.w3.org/2000/svg" xmlns:xlink="http://www.w3.org/1999/xlink">
<g id="graph0" class="graph" transform="scale(1 1) rotate(0) translate(4 274)">
<title>%3</title>
<polygon fill="white" stroke="none" points="-4,4 -4,-274 844,-274 844,4 -4,4"/>
<!-- rdf -->
<g id="node1" class="node"><title>rdf</title>
<ellipse fill="none" stroke="black" cx="69" cy="-99" rx="68.9457" ry="26.7407"/>
<text text-anchor="middle" x="69" y="-102.8" font-family="Times,serif" font-size="14.00">RDF/SPARQL</text>
<text text-anchor="middle" x="69" y="-87.8" font-family="Times,serif" font-size="14.00">(Virtuoso)</text>
</g>
<!-- ims -->
<g id="node2" class="node"><title>ims</title>
<ellipse fill="none" stroke="black" cx="258" cy="-99" rx="101.087" ry="18"/>
<text text-anchor="middle" x="258" y="-95.3" font-family="Times,serif" font-size="14.00">Identity Mapping Service</text>
</g>
<!-- mysql -->
<g id="node3" class="node"><title>mysql</title>
<ellipse fill="none" stroke="black" cx="258" cy="-18" rx="38.4949" ry="18"/>
<text text-anchor="middle" x="258" y="-14.3" font-family="Times,serif" font-size="14.00">mySQL</text>
</g>
<!-- ims&#45;&gt;mysql -->
<g id="edge1" class="edge"><title>ims&#45;&gt;mysql</title>
<path fill="none" stroke="black" d="M258,-80.8582C258,-70.7129 258,-57.6336 258,-46.1168"/>
<polygon fill="black" stroke="black" points="261.5,-46.1083 258,-36.1084 254.5,-46.1084 261.5,-46.1083"/>
</g>
<!-- web -->
<g id="node4" class="node"><title>web</title>
<ellipse fill="none" stroke="black" cx="370" cy="-252" rx="41.394" ry="18"/>
<text text-anchor="middle" x="370" y="-248.3" font-family="Times,serif" font-size="14.00">Explorer</text>
</g>
<!-- api -->
<g id="node5" class="node"><title>api</title>
<ellipse fill="none" stroke="black" cx="370" cy="-180" rx="71.2405" ry="18"/>
<text text-anchor="middle" x="370" y="-176.3" font-family="Times,serif" font-size="14.00">Linked Data API</text>
</g>
<!-- web&#45;&gt;api -->
<g id="edge6" class="edge"><title>web&#45;&gt;api</title>
<path fill="none" stroke="black" d="M370,-233.697C370,-225.983 370,-216.712 370,-208.112"/>
<polygon fill="black" stroke="black" points="373.5,-208.104 370,-198.104 366.5,-208.104 373.5,-208.104"/>
</g>
<!-- api&#45;&gt;rdf -->
<g id="edge3" class="edge"><title>api&#45;&gt;rdf</title>
<path fill="none" stroke="black" d="M317.199,-167.7C272.017,-157.719 205.376,-142.26 148,-126 141.983,-124.295 135.741,-122.422 129.522,-120.488"/>
<polygon fill="black" stroke="black" points="130.393,-117.093 119.803,-117.413 128.281,-123.767 130.393,-117.093"/>
</g>
<!-- api&#45;&gt;ims -->
<g id="edge2" class="edge"><title>api&#45;&gt;ims</title>
<path fill="none" stroke="black" d="M347.065,-162.823C330.675,-151.262 308.399,-135.549 290.225,-122.73"/>
<polygon fill="black" stroke="black" points="291.865,-119.604 281.676,-116.7 287.831,-125.324 291.865,-119.604"/>
</g>
<!-- rsc -->
<g id="node6" class="node"><title>rsc</title>
<ellipse fill="none" stroke="black" cx="483" cy="-99" rx="105.411" ry="18"/>
<text text-anchor="middle" x="483" y="-95.3" font-family="Times,serif" font-size="14.00">Chemical Structure Search</text>
</g>
<!-- api&#45;&gt;rsc -->
<g id="edge4" class="edge"><title>api&#45;&gt;rsc</title>
<path fill="none" stroke="black" d="M393.14,-162.823C409.676,-151.262 432.151,-135.549 450.487,-122.73"/>
<polygon fill="black" stroke="black" points="452.922,-125.299 459.112,-116.7 448.911,-119.562 452.922,-125.299"/>
</g>
<!-- conceptwiki -->
<g id="node7" class="node"><title>conceptwiki</title>
<ellipse fill="none" stroke="black" cx="724" cy="-99" rx="116.509" ry="26.7407"/>
<text text-anchor="middle" x="724" y="-102.8" font-family="Times,serif" font-size="14.00">Identity Resolution Service</text>
<text text-anchor="middle" x="724" y="-87.8" font-family="Times,serif" font-size="14.00">(ConceptWiki)</text>
</g>
<!-- api&#45;&gt;conceptwiki -->
<g id="edge5" class="edge"><title>api&#45;&gt;conceptwiki</title>
<path fill="none" stroke="black" d="M421.475,-167.513C476.558,-155.22 565.059,-135.47 632.141,-120.5"/>
<polygon fill="black" stroke="black" points="633.298,-123.828 642.296,-118.233 631.773,-116.996 633.298,-123.828"/>
</g>
</g>
</svg>
