<?xml version="1.0" encoding="UTF-8" standalone="no"?>
<!DOCTYPE svg PUBLIC "-//W3C//DTD SVG 1.1//EN"
 "http://www.w3.org/Graphics/SVG/1.1/DTD/svg11.dtd">
<!-- Generated by graphviz version 2.36.0 (20140111.2315)
 -->
<!-- Title: %3 Pages: 1 -->
<svg width="470pt" height="278pt"
 viewBox="0.00 0.00 470.00 278.00" xmlns="http://www.w3.org/2000/svg" xmlns:xlink="http://www.w3.org/1999/xlink">
<g id="graph0" class="graph" transform="scale(1 1) rotate(0) translate(4 274)">
<title>%3</title>
<polygon fill="white" stroke="none" points="-4,4 -4,-274 466,-274 466,4 -4,4"/>
<!-- rsc -->
<g id="node1" class="node"><title>rsc</title>
<ellipse fill="none" stroke="black" cx="245" cy="-180" rx="105.411" ry="18"/>
<text text-anchor="middle" x="245" y="-176.3" font-family="Times,serif" font-size="14.00">Chemical Structure Search</text>
</g>
<!-- rdf -->
<g id="node2" class="node"><title>rdf</title>
<ellipse fill="none" stroke="black" cx="320" cy="-99" rx="68.9457" ry="26.7407"/>
<text text-anchor="middle" x="320" y="-102.8" font-family="Times,serif" font-size="14.00">RDF/SPARQL</text>
<text text-anchor="middle" x="320" y="-87.8" font-family="Times,serif" font-size="14.00">(Virtuoso)</text>
</g>
<!-- rsc&#45;&gt;rdf -->
<g id="edge3" class="edge"><title>rsc&#45;&gt;rdf</title>
<path fill="none" stroke="black" d="M261.274,-161.858C269.594,-153.094 279.993,-142.141 289.719,-131.896"/>
<polygon fill="black" stroke="black" points="292.295,-134.266 296.642,-124.604 287.219,-129.446 292.295,-134.266"/>
</g>
<!-- ims -->
<g id="node3" class="node"><title>ims</title>
<ellipse fill="none" stroke="black" cx="320" cy="-18" rx="101.087" ry="18"/>
<text text-anchor="middle" x="320" y="-14.3" font-family="Times,serif" font-size="14.00">Identity Mapping Service</text>
</g>
<!-- rdf&#45;&gt;ims -->
<g id="edge2" class="edge"><title>rdf&#45;&gt;ims</title>
<path fill="none" stroke="black" d="M320,-71.6941C320,-63.5798 320,-54.6261 320,-46.4375"/>
<polygon fill="black" stroke="black" points="323.5,-46.2484 320,-36.2484 316.5,-46.2484 323.5,-46.2484"/>
</g>
<!-- conceptwiki -->
<g id="node4" class="node"><title>conceptwiki</title>
<ellipse fill="none" stroke="black" cx="116" cy="-99" rx="116.509" ry="26.7407"/>
<text text-anchor="middle" x="116" y="-102.8" font-family="Times,serif" font-size="14.00">Identity Resolution Service</text>
<text text-anchor="middle" x="116" y="-87.8" font-family="Times,serif" font-size="14.00">(ConceptWiki)</text>
</g>
<!-- conceptwiki&#45;&gt;ims -->
<g id="edge1" class="edge"><title>conceptwiki&#45;&gt;ims</title>
<path fill="none" stroke="black" d="M173.913,-75.5731C204.286,-63.8107 241.119,-49.5472 270.201,-38.285"/>
<polygon fill="black" stroke="black" points="271.684,-41.4638 279.746,-34.5887 269.157,-34.9362 271.684,-41.4638"/>
</g>
<!-- external -->
<g id="node5" class="node"><title>external</title>
<ellipse fill="none" stroke="black" cx="379" cy="-252" rx="83.2892" ry="18"/>
<text text-anchor="middle" x="379" y="-248.3" font-family="Times,serif" font-size="14.00">Chembl, Uniprot, ...</text>
</g>
<!-- external&#45;&gt;rsc -->
<g id="edge5" class="edge"><title>external&#45;&gt;rsc</title>
<path fill="none" stroke="black" d="M348.593,-235.116C329.844,-225.321 305.579,-212.646 285.247,-202.025"/>
<polygon fill="black" stroke="black" points="286.7,-198.835 276.216,-197.307 283.459,-205.039 286.7,-198.835"/>
</g>
<!-- external&#45;&gt;rdf -->
<g id="edge4" class="edge"><title>external&#45;&gt;rdf</title>
<path fill="none" stroke="black" d="M376.897,-233.745C374.261,-215.42 368.844,-185.863 359,-162 355.035,-152.39 349.626,-142.595 344.099,-133.714"/>
<polygon fill="black" stroke="black" points="346.949,-131.676 338.581,-125.177 341.07,-135.475 346.949,-131.676"/>
</g>
<!-- external&#45;&gt;ims -->
<g id="edge6" class="edge"><title>external&#45;&gt;ims</title>
<path fill="none" stroke="black" d="M386.796,-234.016C400.831,-200.748 426.371,-125.579 398,-72 390.966,-58.7159 378.944,-48.1432 366.418,-40.0457"/>
<polygon fill="black" stroke="black" points="368.097,-36.9714 357.72,-34.8323 364.498,-42.9755 368.097,-36.9714"/>
</g>
</g>
</svg>
